<svg xmlns="http://www.w3.org/2000/svg" width="1200" height="630" viewBox="0 0 1200 630">
  <rect width="1200" height="630" fill="#fcf8f3" />
  <circle cx="104" cy="92" r="160" fill="#f2ddd1" opacity="0.62" />
  <circle cx="1064" cy="566" r="196" fill="#efc0a8" opacity="0.28" />
  <ellipse cx="908" cy="526" rx="212" ry="72" fill="#d97757" opacity="0.12" />

  <g opacity="0.14" stroke="#d8bcae" stroke-width="1">
    <path d="M0 116 H1200" />
    <path d="M0 214 H1200" />
    <path d="M0 312 H1200" />
    <path d="M0 410 H1200" />
    <path d="M0 508 H1200" />
  </g>

  <g transform="translate(72 62)">
    <rect x="0" y="0" width="196" height="46" rx="23" fill="#fff" stroke="#ddc3b4" stroke-width="4" />
    <text
      x="98"
      y="31"
      fill="#8b6a57"
      font-family="'SF Mono', 'Geist Mono', Menlo, monospace"
      font-size="22"
      font-weight="700"
      letter-spacing="4"
      text-anchor="middle"
    >
      BASE MINIAPP
    </text>

    <text
      x="0"
      y="124"
      fill="#d97757"
      font-family="'SF Mono', 'Geist Mono', Menlo, monospace"
      font-size="28"
      font-weight="700"
      letter-spacing="8"
    >
      CLAUDORO
    </text>

    <text
      x="0"
      y="234"
      fill="#33251d"
      font-family="'SF Mono', 'Geist Mono', Menlo, monospace"
      font-size="76"
      font-weight="700"
      letter-spacing="-3"
    >
      Cute focus timer
    </text>
    <text
      x="0"
      y="314"
      fill="#33251d"
      font-family="'SF Mono', 'Geist Mono', Menlo, monospace"
      font-size="76"
      font-weight="700"
      letter-spacing="-3"
    >
      for vibe coding.
    </text>

    <text
      x="0"
      y="392"
      fill="#6d5649"
      font-family="'SF Mono', 'Geist Mono', Menlo, monospace"
      font-size="30"
      font-weight="500"
    >
      Pomodoro, streaks, and Base-native share loops
    </text>

    <g transform="translate(0 456)">
      <rect x="0" y="0" width="114" height="44" rx="22" fill="#fff" stroke="#ddc3b4" stroke-width="4" />
      <text x="57" y="29" fill="#d97757" font-family="'SF Mono', 'Geist Mono', Menlo, monospace" font-size="24" font-weight="700" text-anchor="middle">25 MIN</text>
      <rect x="132" y="0" width="110" height="44" rx="22" fill="#fff" stroke="#ddc3b4" stroke-width="4" />
      <text x="187" y="29" fill="#8b6a57" font-family="'SF Mono', 'Geist Mono', Menlo, monospace" font-size="22" font-weight="700" text-anchor="middle">BASE</text>
      <rect x="260" y="0" width="148" height="44" rx="22" fill="#fff" stroke="#ddc3b4" stroke-width="4" />
      <text x="334" y="29" fill="#8b6a57" font-family="'SF Mono', 'Geist Mono', Menlo, monospace" font-size="22" font-weight="700" text-anchor="middle">STREAKS</text>
      <rect x="426" y="0" width="188" height="44" rx="22" fill="#fff" stroke="#ddc3b4" stroke-width="4" />
      <text x="520" y="29" fill="#8b6a57" font-family="'SF Mono', 'Geist Mono', Menlo, monospace" font-size="22" font-weight="700" text-anchor="middle">SAVE &amp; SHARE</text>
    </g>
  </g>

  <g transform="translate(700 76)">
    <rect x="104" y="36" width="248" height="174" rx="34" fill="#fff8f2" stroke="#e6cdbf" stroke-width="4" />
    <text x="138" y="84" fill="#8b6a57" font-family="'SF Mono', 'Geist Mono', Menlo, monospace" font-size="20" font-weight="700" letter-spacing="4">SPRINT</text>
    <text x="138" y="146" fill="#33251d" font-family="'SF Mono', 'Geist Mono', Menlo, monospace" font-size="62" font-weight="700">25:00</text>
    <rect x="140" y="166" width="152" height="14" rx="7" fill="#d97757" />
    <rect x="306" y="166" width="24" height="14" rx="7" fill="#f2d9cc" />

    <ellipse cx="226" cy="374" rx="244" ry="64" fill="#d97757" opacity="0.12" />
    <circle cx="206" cy="254" r="164" fill="#f2ddd1" opacity="0.52" />

    <g transform="translate(44 122)">
      <rect x="34" y="82" width="296" height="184" rx="84" fill="#d97757" />
      <rect x="6" y="126" width="60" height="64" rx="24" fill="#d97757" />
      <rect x="298" y="126" width="60" height="64" rx="24" fill="#d97757" />
      <rect x="84" y="70" width="194" height="12" rx="6" fill="#b65435" opacity="0.92" />

      <rect x="98" y="140" width="40" height="14" rx="7" fill="#261a14" transform="rotate(-8 118 147)" />
      <rect x="224" y="140" width="40" height="14" rx="7" fill="#261a14" transform="rotate(8 244 147)" />
      <circle cx="148" cy="182" r="10" fill="#f5b9a1" opacity="0.68" />
      <circle cx="214" cy="182" r="10" fill="#f5b9a1" opacity="0.68" />
      <path d="M160 202 Q181 220 202 202" fill="none" stroke="#8a4128" stroke-linecap="round" stroke-width="9" />

      <rect x="92" y="266" width="18" height="62" rx="9" fill="#d97757" />
      <rect x="144" y="266" width="18" height="62" rx="9" fill="#d97757" />
      <rect x="196" y="266" width="18" height="62" rx="9" fill="#d97757" />
      <rect x="248" y="266" width="18" height="62" rx="9" fill="#d97757" />

      <rect x="140" y="318" width="116" height="24" rx="12" fill="#33251d" />
      <rect x="258" y="318" width="24" height="24" rx="8" fill="#d97757" />
    </g>
  </g>
</svg>
