<svg xmlns="http://www.w3.org/2000/svg" width="1024" height="1024" viewBox="0 0 1024 1024">
  <defs>
    <linearGradient id="bg" x1="0%" x2="100%" y1="0%" y2="100%">
      <stop offset="0%" stop-color="#fffaf6" />
      <stop offset="100%" stop-color="#f7eee6" />
    </linearGradient>
    <linearGradient id="halo" x1="20%" x2="80%" y1="20%" y2="80%">
      <stop offset="0%" stop-color="#f4bb9f" />
      <stop offset="100%" stop-color="#d97757" />
    </linearGradient>
  </defs>

  <rect x="36" y="36" width="952" height="952" rx="220" fill="url(#bg)" stroke="#d97757" stroke-width="26" />
  <rect x="88" y="88" width="848" height="848" rx="184" fill="none" stroke="#efd9cc" stroke-width="8" />

  <circle cx="512" cy="462" r="266" fill="url(#halo)" opacity="0.14" />

  <g transform="translate(224 250)">
    <rect x="0" y="0" width="110" height="54" rx="27" fill="#fff" stroke="#e0c6b7" stroke-width="4" />
    <text
      x="55"
      y="37"
      fill="#d97757"
      font-family="'SF Mono', 'Geist Mono', Menlo, monospace"
      font-size="34"
      font-weight="700"
      text-anchor="middle"
    >
      25
    </text>
  </g>

  <g transform="translate(230 284)">
    <ellipse cx="282" cy="430" rx="276" ry="56" fill="#d97757" opacity="0.16" />

    <rect x="98" y="54" width="368" height="222" rx="88" fill="#d97757" />
    <rect x="64" y="106" width="74" height="82" rx="28" fill="#d97757" />
    <rect x="426" y="106" width="74" height="82" rx="28" fill="#d97757" />

    <rect x="132" y="36" width="300" height="14" rx="7" fill="#b65435" opacity="0.88" />

    <rect x="156" y="122" width="44" height="16" rx="8" fill="#261a14" transform="rotate(-8 178 130)" />
    <rect x="364" y="122" width="44" height="16" rx="8" fill="#261a14" transform="rotate(8 386 130)" />

    <circle cx="226" cy="172" r="12" fill="#f4b49b" opacity="0.58" />
    <circle cx="338" cy="172" r="12" fill="#f4b49b" opacity="0.58" />
    <path d="M248 194 Q282 220 316 194" fill="none" stroke="#8a4128" stroke-linecap="round" stroke-width="10" />

    <rect x="132" y="276" width="24" height="72" rx="10" fill="#d97757" />
    <rect x="202" y="276" width="24" height="72" rx="10" fill="#d97757" />
    <rect x="272" y="276" width="24" height="72" rx="10" fill="#d97757" />
    <rect x="342" y="276" width="24" height="72" rx="10" fill="#d97757" />
    <rect x="412" y="276" width="24" height="72" rx="10" fill="#d97757" />

    <rect x="176" y="388" width="212" height="30" rx="15" fill="#33251d" opacity="0.2" />
    <rect x="194" y="372" width="176" height="30" rx="15" fill="#33251d" />
    <rect x="370" y="372" width="32" height="30" rx="10" fill="#d97757" />
  </g>

  <text
    x="512"
    y="846"
    fill="#8b6a57"
    font-family="'SF Mono', 'Geist Mono', Menlo, monospace"
    font-size="58"
    font-weight="700"
    letter-spacing="18"
    text-anchor="middle"
  >
    CLAUDORO
  </text>
</svg>
