<svg xmlns="http://www.w3.org/2000/svg" width="1024" height="1024" viewBox="0 0 1024 1024">
  <rect width="1024" height="1024" fill="#fcf8f3" />
  <circle cx="172" cy="164" r="178" fill="#f3d3c2" opacity="0.34" />
  <circle cx="852" cy="820" r="244" fill="#efc0a8" opacity="0.2" />

  <rect x="192" y="96" width="160" height="42" rx="21" fill="#fff" stroke="#e0c6b7" stroke-width="4" />
  <text
    x="272"
    y="124"
    fill="#8b6a57"
    font-family="'SF Mono', 'Geist Mono', Menlo, monospace"
    font-size="22"
    font-weight="700"
    letter-spacing="4"
    text-anchor="middle"
  >
    BASE MINIAPP
  </text>

  <text
    x="512"
    y="240"
    fill="#d97757"
    font-family="'SF Mono', 'Geist Mono', Menlo, monospace"
    font-size="56"
    font-weight="700"
    letter-spacing="10"
    text-anchor="middle"
  >
    CLAUDORO
  </text>

  <text
    x="512"
    y="304"
    fill="#6d5649"
    font-family="'SF Mono', 'Geist Mono', Menlo, monospace"
    font-size="32"
    font-weight="500"
    text-anchor="middle"
  >
    A cute coding mascot for focused sprints
  </text>

  <g transform="translate(236 346)">
    <ellipse cx="276" cy="378" rx="286" ry="54" fill="#d97757" opacity="0.15" />

    <rect x="92" y="46" width="368" height="224" rx="96" fill="#d97757" />
    <rect x="58" y="102" width="70" height="74" rx="28" fill="#d97757" />
    <rect x="424" y="102" width="70" height="74" rx="28" fill="#d97757" />
    <rect x="128" y="30" width="296" height="14" rx="7" fill="#b65435" opacity="0.9" />

    <rect x="150" y="114" width="46" height="16" rx="8" fill="#261a14" transform="rotate(-8 173 122)" />
    <rect x="356" y="114" width="46" height="16" rx="8" fill="#261a14" transform="rotate(8 379 122)" />
    <circle cx="220" cy="166" r="12" fill="#f5b9a1" opacity="0.62" />
    <circle cx="334" cy="166" r="12" fill="#f5b9a1" opacity="0.62" />
    <path d="M240 188 Q276 216 312 188" fill="none" stroke="#8a4128" stroke-linecap="round" stroke-width="10" />

    <rect x="130" y="270" width="24" height="74" rx="10" fill="#d97757" />
    <rect x="200" y="270" width="24" height="74" rx="10" fill="#d97757" />
    <rect x="270" y="270" width="24" height="74" rx="10" fill="#d97757" />
    <rect x="340" y="270" width="24" height="74" rx="10" fill="#d97757" />
    <rect x="410" y="270" width="24" height="74" rx="10" fill="#d97757" />

    <rect x="182" y="366" width="188" height="28" rx="14" fill="#33251d" />
    <rect x="370" y="366" width="28" height="28" rx="9" fill="#d97757" />
  </g>

  <g transform="translate(366 854)">
    <rect x="0" y="0" width="96" height="44" rx="22" fill="#fff" stroke="#e0c6b7" stroke-width="4" />
    <text x="48" y="29" fill="#d97757" font-family="'SF Mono', 'Geist Mono', Menlo, monospace" font-size="30" font-weight="700" text-anchor="middle">25</text>
    <rect x="112" y="0" width="180" height="44" rx="22" fill="#fff" stroke="#e0c6b7" stroke-width="4" />
    <text x="202" y="29" fill="#8b6a57" font-family="'SF Mono', 'Geist Mono', Menlo, monospace" font-size="22" font-weight="700" text-anchor="middle">FOCUS TIMER</text>
  </g>
</svg>
